<svg width="124" height="49" viewBox="0 0 124 49" fill="none" xmlns="http://www.w3.org/2000/svg">
<path d="M49.0682 21.6364L47.8409 29H43.1364L46.0341 11.5455H50.5682L49.4432 18.3977H49.5795C50.0057 17.5625 50.6023 16.9119 51.3693 16.446C52.1364 15.9744 53.0057 15.7386 53.9773 15.7386C54.8977 15.7386 55.6648 15.9489 56.2784 16.3693C56.892 16.7898 57.3267 17.3693 57.5824 18.108C57.8381 18.8466 57.8864 19.6932 57.7273 20.6477L56.3295 29H51.625L52.8523 21.6364C52.9545 20.9886 52.8722 20.4801 52.6051 20.1108C52.3438 19.7415 51.9148 19.5568 51.3182 19.5568C50.9318 19.5568 50.5795 19.642 50.2614 19.8125C49.9489 19.9773 49.6875 20.2159 49.4773 20.5284C49.2727 20.8352 49.1364 21.2045 49.0682 21.6364ZM58.6179 29L60.7997 15.9091H65.3679L64.9588 18.3977H65.0952C65.4872 17.4773 65.9787 16.804 66.5696 16.3778C67.1605 15.9517 67.8054 15.7386 68.5043 15.7386C68.7088 15.7386 68.9048 15.7557 69.0923 15.7898C69.2855 15.8182 69.4759 15.858 69.6634 15.9091L68.9815 19.9318C68.7599 19.8466 68.4844 19.7869 68.1548 19.7528C67.8253 19.7131 67.5327 19.6932 67.277 19.6932C66.8224 19.6932 66.3963 19.7983 65.9986 20.0085C65.6065 20.2131 65.2713 20.5028 64.9929 20.8778C64.7202 21.2472 64.5384 21.6818 64.4474 22.1818L63.3224 29H58.6179ZM69.0241 29L71.206 15.9091H75.9105L73.7287 29H69.0241ZM73.7628 14.5455C73.1264 14.5455 72.6122 14.3352 72.2202 13.9148C71.8281 13.4886 71.6832 12.983 71.7855 12.3977C71.8878 11.8011 72.2003 11.2955 72.723 10.8807C73.2457 10.4602 73.8253 10.25 74.4616 10.25C75.1037 10.25 75.6151 10.4602 75.9957 10.8807C76.3764 11.2955 76.5185 11.8011 76.4219 12.3977C76.331 12.983 76.0241 13.4886 75.5014 13.9148C74.9844 14.3352 74.4048 14.5455 73.7628 14.5455ZM82.0916 21.6364L80.8643 29H76.1598L78.3416 15.9091H82.8075L82.3984 18.3977H82.5348C82.9496 17.5625 83.5547 16.9119 84.3501 16.446C85.1513 15.9744 86.0348 15.7386 87.0007 15.7386C87.9268 15.7386 88.6967 15.9489 89.3104 16.3693C89.924 16.7898 90.3587 17.3693 90.6143 18.108C90.87 18.8466 90.9155 19.6932 90.7507 20.6477L89.353 29H84.6484L85.8757 21.6364C85.9837 20.9886 85.9041 20.4801 85.6371 20.1108C85.3757 19.7415 84.9439 19.5568 84.3416 19.5568C83.9609 19.5568 83.6115 19.642 83.2933 19.8125C82.9808 19.9773 82.7195 20.2159 82.5092 20.5284C82.3047 20.8352 82.1655 21.2045 82.0916 21.6364ZM96.38 25.8977L97.3345 20.3068H97.9482L101.869 15.9091H107.153L100.71 22.7614H99.38L96.38 25.8977ZM91.6413 29L94.5391 11.5455H99.2436L96.3459 29H91.6413ZM99.7209 29L97.5732 23.8182L101.221 20.4773L105.107 29H99.7209Z" fill="white"/>
<path d="M47.6062 35.1907C47.6185 34.7629 47.4877 34.4351 47.2138 34.2074C46.9429 33.9796 46.5536 33.8658 46.0458 33.8658C45.6888 33.8658 45.3733 33.9196 45.0994 34.0273C44.8286 34.132 44.6101 34.2782 44.4439 34.4659C44.2777 34.6506 44.1746 34.8614 44.1346 35.0984C44.1007 35.2923 44.1177 35.4615 44.1854 35.6062C44.2531 35.7508 44.3562 35.8739 44.4947 35.9755C44.6362 36.0771 44.7963 36.1617 44.9748 36.2294C45.1564 36.2971 45.341 36.354 45.5288 36.4002L46.3782 36.6218C46.7167 36.7049 47.0399 36.8172 47.3477 36.9588C47.6554 37.0973 47.9216 37.2758 48.1463 37.4943C48.3741 37.7098 48.5402 37.9698 48.6449 38.2745C48.7495 38.5792 48.7665 38.9362 48.6957 39.3455C48.6033 39.8995 48.3802 40.3873 48.0263 40.8089C47.6754 41.2275 47.2138 41.5553 46.6413 41.7923C46.072 42.0262 45.4087 42.1431 44.6516 42.1431C43.9192 42.1431 43.3005 42.0292 42.7958 41.8015C42.2911 41.5707 41.9218 41.2367 41.6879 40.7997C41.457 40.3627 41.3832 39.8318 41.4663 39.207H43.1513C43.1174 39.5363 43.1713 39.8103 43.3129 40.0288C43.4575 40.2473 43.6652 40.4104 43.9361 40.5181C44.2069 40.6258 44.5208 40.6797 44.8778 40.6797C45.2502 40.6797 45.5872 40.6243 45.8888 40.5135C46.1905 40.3996 46.4367 40.2427 46.6275 40.0426C46.8214 39.8395 46.9399 39.6025 46.983 39.3317C47.026 39.0885 46.9906 38.8854 46.8768 38.7223C46.7629 38.5592 46.5859 38.4238 46.3459 38.3161C46.1089 38.2053 45.8258 38.1068 45.4964 38.0206L44.4716 37.7436C43.7299 37.5405 43.1667 37.2358 42.782 36.8295C42.4003 36.4233 42.2649 35.8816 42.3757 35.2045C42.468 34.6444 42.7004 34.1566 43.0728 33.7411C43.4452 33.3226 43.9115 32.9979 44.4716 32.767C45.0317 32.5331 45.6442 32.4162 46.3089 32.4162C46.9799 32.4162 47.5477 32.5331 48.0124 32.767C48.4802 33.0009 48.8219 33.3272 49.0373 33.7457C49.2558 34.1612 49.3281 34.6429 49.2543 35.1907H47.6062ZM54.7236 39.0178L55.4115 34.9091H57.0827L55.9008 42H54.2805L54.4928 40.7397H54.4189C54.1974 41.1367 53.8804 41.4614 53.468 41.7138C53.0586 41.9661 52.5877 42.0923 52.0553 42.0923C51.5906 42.0923 51.1982 41.9892 50.8781 41.783C50.558 41.5737 50.3303 41.2706 50.1949 40.8736C50.0625 40.4735 50.0425 39.9903 50.1349 39.424L50.892 34.9091H52.5631L51.8522 39.1655C51.7814 39.6148 51.846 39.9718 52.0461 40.2365C52.2492 40.5012 52.5508 40.6335 52.9509 40.6335C53.1971 40.6335 53.4449 40.5735 53.6942 40.4535C53.9465 40.3335 54.1666 40.1549 54.3543 39.918C54.5421 39.6779 54.6652 39.3778 54.7236 39.0178ZM57.1808 44.6591L58.815 34.9091H60.4585L60.2692 36.0817H60.3661C60.4769 35.9093 60.6262 35.7262 60.8139 35.5323C61.0047 35.3353 61.2463 35.1676 61.5387 35.0291C61.8311 34.8875 62.1866 34.8168 62.6051 34.8168C63.1499 34.8168 63.6192 34.9568 64.0131 35.2369C64.4071 35.5138 64.6887 35.9247 64.858 36.4695C65.0303 37.0111 65.0518 37.6759 64.9226 38.4638C64.7933 39.2424 64.5548 39.9041 64.207 40.4489C63.8593 40.9936 63.4422 41.4091 62.956 41.6953C62.4697 41.9815 61.948 42.1246 61.391 42.1246C60.9847 42.1246 60.657 42.0569 60.4077 41.9215C60.1615 41.7861 59.9753 41.623 59.8491 41.4322C59.7229 41.2383 59.629 41.0552 59.5675 40.8828H59.4936L58.8658 44.6591H57.1808ZM59.8629 38.4545C59.7891 38.9131 59.7875 39.3147 59.8583 39.6594C59.9322 40.0041 60.0784 40.2734 60.2969 40.4673C60.5154 40.6581 60.8016 40.7536 61.1555 40.7536C61.5249 40.7536 61.848 40.6551 62.125 40.4581C62.4051 40.258 62.6374 39.9857 62.8221 39.641C63.0098 39.2932 63.1422 38.8977 63.2191 38.4545C63.2899 38.0144 63.2899 37.6236 63.2191 37.282C63.1483 36.9403 63.0052 36.6726 62.7898 36.4787C62.5743 36.2848 62.282 36.1879 61.9126 36.1879C61.5526 36.1879 61.2309 36.2817 60.9478 36.4695C60.6677 36.6572 60.4354 36.9203 60.2507 37.2589C60.0661 37.5974 59.9368 37.996 59.8629 38.4545ZM68.9978 32.5455L67.4282 42H65.757L67.3266 32.5455H68.9978ZM72.2674 42.1385C71.5565 42.1385 70.9686 41.9908 70.5039 41.6953C70.0392 41.3968 69.7129 40.9751 69.5252 40.4304C69.3406 39.8826 69.3098 39.2378 69.4329 38.4961C69.5529 37.7667 69.7976 37.1265 70.1669 36.5756C70.5362 36.0217 70.9979 35.5908 71.5518 35.283C72.1089 34.9722 72.7244 34.8168 73.3984 34.8168C73.8355 34.8168 74.2371 34.8875 74.6033 35.0291C74.9696 35.1676 75.2789 35.383 75.5312 35.6754C75.7836 35.9678 75.9575 36.3402 76.0529 36.7926C76.1483 37.242 76.1437 37.7775 76.0391 38.3991L75.9606 38.9116H70.1438L70.3239 37.7852H74.5341C74.5895 37.4651 74.571 37.1804 74.4787 36.9311C74.3864 36.6787 74.2325 36.4802 74.017 36.3356C73.8016 36.1909 73.5323 36.1186 73.2092 36.1186C72.8799 36.1186 72.5721 36.2032 72.2859 36.3725C72.0027 36.5387 71.7642 36.7541 71.5703 37.0188C71.3764 37.2835 71.2533 37.562 71.201 37.8544L71.0117 38.9347C70.944 39.3778 70.9594 39.7395 71.0579 40.0195C71.1564 40.2996 71.3287 40.5058 71.5749 40.6381C71.8211 40.7705 72.132 40.8366 72.5075 40.8366C72.7537 40.8366 72.9814 40.8028 73.1907 40.7351C73.4 40.6674 73.5862 40.5658 73.7493 40.4304C73.9155 40.2919 74.054 40.1226 74.1648 39.9226L75.6928 40.098C75.5236 40.5104 75.2758 40.8705 74.9496 41.1783C74.6233 41.483 74.2325 41.7199 73.777 41.8892C73.3246 42.0554 72.8214 42.1385 72.2674 42.1385ZM76.87 42L78.0518 34.9091H79.6538L79.4506 36.114H79.5384C79.7538 35.7077 80.0508 35.3907 80.4293 35.163C80.8079 34.9322 81.2341 34.8168 81.7081 34.8168C82.1851 34.8168 82.5698 34.9337 82.8622 35.1676C83.1577 35.3984 83.3393 35.7139 83.407 36.114H83.4808C83.7024 35.717 84.0194 35.4015 84.4318 35.1676C84.8473 34.9337 85.3136 34.8168 85.8306 34.8168C86.4769 34.8168 86.9724 35.023 87.3171 35.4354C87.6618 35.8478 87.768 36.4495 87.6357 37.2404L86.8416 42H85.1705L85.9276 37.4989C85.9953 37.0588 85.9276 36.7372 85.7244 36.5341C85.5244 36.3279 85.2551 36.2248 84.9165 36.2248C84.5134 36.2248 84.1779 36.3494 83.9102 36.5987C83.6455 36.848 83.4824 37.1742 83.4208 37.5774L82.6776 42H81.0387L81.805 37.4297C81.8604 37.0634 81.7958 36.7711 81.6112 36.5526C81.4296 36.334 81.1618 36.2248 80.8079 36.2248C80.5678 36.2248 80.3385 36.2863 80.12 36.4094C79.9015 36.5326 79.7153 36.7049 79.5614 36.9265C79.4106 37.145 79.3121 37.3989 79.266 37.6882L78.5458 42H76.87ZM91.6531 42.1385C90.9422 42.1385 90.3544 41.9908 89.8896 41.6953C89.4249 41.3968 89.0987 40.9751 88.911 40.4304C88.7263 39.8826 88.6955 39.2378 88.8186 38.4961C88.9387 37.7667 89.1833 37.1265 89.5526 36.5756C89.922 36.0217 90.3836 35.5908 90.9376 35.283C91.4946 34.9722 92.1102 34.8168 92.7842 34.8168C93.2212 34.8168 93.6228 34.8875 93.9891 35.0291C94.3553 35.1676 94.6646 35.383 94.917 35.6754C95.1694 35.9678 95.3432 36.3402 95.4387 36.7926C95.5341 37.242 95.5294 37.7775 95.4248 38.3991L95.3463 38.9116H89.5296L89.7096 37.7852H93.9198C93.9752 37.4651 93.9568 37.1804 93.8644 36.9311C93.7721 36.6787 93.6182 36.4802 93.4028 36.3356C93.1874 36.1909 92.9181 36.1186 92.5949 36.1186C92.2656 36.1186 91.9578 36.2032 91.6716 36.3725C91.3885 36.5387 91.1499 36.7541 90.9561 37.0188C90.7622 37.2835 90.6391 37.562 90.5867 37.8544L90.3975 38.9347C90.3298 39.3778 90.3451 39.7395 90.4436 40.0195C90.5421 40.2996 90.7145 40.5058 90.9607 40.6381C91.2069 40.7705 91.5177 40.8366 91.8932 40.8366C92.1394 40.8366 92.3672 40.8028 92.5764 40.7351C92.7857 40.6674 92.9719 40.5658 93.135 40.4304C93.3012 40.2919 93.4397 40.1226 93.5505 39.9226L95.0786 40.098C94.9093 40.5104 94.6615 40.8705 94.3353 41.1783C94.0091 41.483 93.6182 41.7199 93.1627 41.8892C92.7103 42.0554 92.2071 42.1385 91.6531 42.1385ZM98.6148 37.8452L97.9316 42H96.2558L97.4376 34.9091H99.0395L98.8364 36.114H98.9241C99.1457 35.717 99.4565 35.4015 99.8566 35.1676C100.257 34.9337 100.723 34.8168 101.255 34.8168C101.739 34.8168 102.145 34.9214 102.474 35.1307C102.803 35.3369 103.037 35.64 103.176 36.0401C103.314 36.4371 103.336 36.9188 103.241 37.4851L102.483 42H100.812L101.519 37.7436C101.599 37.2727 101.539 36.9034 101.339 36.6357C101.142 36.3648 100.825 36.2294 100.388 36.2294C100.095 36.2294 99.8258 36.294 99.5796 36.4233C99.3334 36.5495 99.1257 36.7326 98.9564 36.9727C98.7902 37.2127 98.6763 37.5036 98.6148 37.8452ZM108.896 34.9091L108.679 36.2017H104.607L104.819 34.9091H108.896ZM106.103 33.2102H107.774L106.666 39.8672C106.632 40.0919 106.638 40.2642 106.684 40.3842C106.734 40.5012 106.812 40.5812 106.92 40.6243C107.031 40.6674 107.155 40.6889 107.294 40.6889C107.395 40.6889 107.491 40.6812 107.58 40.6658C107.669 40.6474 107.74 40.6335 107.792 40.6243L107.866 41.9308C107.765 41.9615 107.628 41.9954 107.455 42.0323C107.286 42.0692 107.083 42.0908 106.846 42.0969C106.421 42.1062 106.052 42.0415 105.738 41.9031C105.427 41.7615 105.199 41.5445 105.055 41.2521C104.913 40.9567 104.881 40.5874 104.958 40.1442L106.103 33.2102ZM112.147 42.1385C111.448 42.1385 110.867 41.9846 110.402 41.6768C109.94 41.3691 109.615 40.9367 109.428 40.3796C109.24 39.8226 109.206 39.1763 109.326 38.4407C109.446 37.7144 109.686 37.0788 110.046 36.5341C110.41 35.9893 110.867 35.5677 111.417 35.2692C111.971 34.9676 112.592 34.8168 113.278 34.8168C113.977 34.8168 114.557 34.9722 115.018 35.283C115.48 35.5908 115.805 36.0232 115.992 36.5803C116.183 37.1373 116.219 37.7867 116.099 38.5284C115.982 39.2517 115.74 39.8841 115.374 40.4258C115.011 40.9674 114.554 41.3891 114.003 41.6907C113.452 41.9892 112.833 42.1385 112.147 42.1385ZM112.285 40.7997C112.673 40.7997 113.013 40.6951 113.306 40.4858C113.601 40.2734 113.843 39.9888 114.03 39.6317C114.221 39.2717 114.354 38.8716 114.427 38.4315C114.495 38.0067 114.497 37.622 114.432 37.2773C114.367 36.9296 114.229 36.6541 114.017 36.451C113.807 36.2448 113.516 36.1417 113.144 36.1417C112.756 36.1417 112.413 36.2494 112.115 36.4648C111.819 36.6772 111.577 36.9634 111.39 37.3235C111.202 37.6805 111.073 38.0791 111.002 38.5192C110.931 38.9439 110.928 39.3286 110.993 39.6733C111.057 40.018 111.196 40.2919 111.408 40.495C111.621 40.6982 111.913 40.7997 112.285 40.7997ZM123.412 36.7834L121.875 36.9496C121.86 36.7926 121.812 36.6464 121.732 36.511C121.652 36.3756 121.532 36.2679 121.372 36.1879C121.215 36.1048 121.012 36.0632 120.762 36.0632C120.399 36.0632 120.081 36.1448 119.807 36.3079C119.533 36.471 119.377 36.6803 119.34 36.9357C119.307 37.1265 119.353 37.282 119.479 37.402C119.605 37.522 119.839 37.6236 120.181 37.7067L121.353 37.9652C122 38.1098 122.464 38.3437 122.747 38.6669C123.034 38.9901 123.134 39.4132 123.047 39.9364C122.974 40.3735 122.783 40.7582 122.475 41.0906C122.167 41.4199 121.773 41.6768 121.293 41.8615C120.816 42.0462 120.287 42.1385 119.705 42.1385C118.822 42.1385 118.142 41.9554 117.665 41.5891C117.191 41.2198 116.955 40.712 116.958 40.0657L118.602 39.9087C118.62 40.2288 118.733 40.4704 118.939 40.6335C119.145 40.7936 119.431 40.8751 119.797 40.8782C120.21 40.8813 120.558 40.7951 120.841 40.6197C121.127 40.4412 121.289 40.2242 121.326 39.9688C121.356 39.7779 121.309 39.6225 121.182 39.5025C121.059 39.3825 120.839 39.2871 120.522 39.2163L119.359 38.9624C118.7 38.8177 118.231 38.573 117.951 38.2283C117.674 37.8806 117.58 37.442 117.669 36.9126C117.743 36.4818 117.923 36.1109 118.209 35.8001C118.499 35.4862 118.87 35.2446 119.322 35.0753C119.774 34.9029 120.281 34.8168 120.841 34.8168C121.684 34.8168 122.32 34.9937 122.747 35.3477C123.175 35.7016 123.397 36.1802 123.412 36.7834Z" fill="white"/>
<path d="M30.4545 16C30.5909 14.5 30.2273 13.3258 29.3636 12.4773C28.5 11.6136 27.0455 11.1818 25 11.1818C23.697 11.1818 22.6061 11.3333 21.7273 11.6364C20.8636 11.9394 20.1894 12.3561 19.7045 12.8864C19.2348 13.4167 18.9394 14.0303 18.8182 14.7273C18.6818 15.2727 18.6894 15.7727 18.8409 16.2273C19.0076 16.6667 19.3182 17.0682 19.7727 17.4318C20.2424 17.7955 20.8561 18.1212 21.6136 18.4091C22.3864 18.697 23.303 18.9545 24.3636 19.1818L28 20C30.4848 20.5455 32.5682 21.2652 34.25 22.1591C35.947 23.0379 37.2803 24.0833 38.25 25.2955C39.2197 26.5076 39.8561 27.8636 40.1591 29.3636C40.4773 30.8636 40.4848 32.5 40.1818 34.2727C39.6667 37.3333 38.4773 39.9242 36.6136 42.0455C34.75 44.1667 32.3182 45.7803 29.3182 46.8864C26.3182 47.9924 22.8485 48.5455 18.9091 48.5455C14.8788 48.5455 11.4545 47.947 8.63636 46.75C5.83333 45.5379 3.80303 43.6894 2.54545 41.2045C1.30303 38.7045 1 35.5152 1.63636 31.6364H13.6364C13.4545 33.0606 13.6061 34.2576 14.0909 35.2273C14.5758 36.197 15.3561 36.9318 16.4318 37.4318C17.5076 37.9318 18.8485 38.1818 20.4545 38.1818C21.8182 38.1818 22.9848 38.0152 23.9545 37.6818C24.9242 37.3485 25.6894 36.8864 26.25 36.2955C26.8106 35.7045 27.1515 35.0303 27.2727 34.2727C27.3939 33.5758 27.2727 32.9545 26.9091 32.4091C26.5455 31.8636 25.8864 31.3712 24.9318 30.9318C23.9773 30.4924 22.6667 30.0909 21 29.7273L16.5455 28.7273C12.5909 27.8182 9.60606 26.3182 7.59091 24.2273C5.57576 22.1364 4.86364 19.2727 5.45455 15.6364C5.93939 12.6667 7.15909 10.0758 9.11364 7.86364C11.0833 5.63636 13.5833 3.90909 16.6136 2.68182C19.6591 1.43939 23.0303 0.81818 26.7273 0.81818C30.4848 0.81818 33.6288 1.44697 36.1591 2.70454C38.7045 3.96212 40.5303 5.72727 41.6364 8C42.7576 10.2727 43.0606 12.9394 42.5455 16H30.4545Z" fill="white"/>
</svg>
