<svg width="584" height="554" viewBox="0 0 584 554" fill="none" xmlns="http://www.w3.org/2000/svg">
<path d="M584 59.3558H46.8787V68.1132H584V59.3558Z" fill="#F0F0F0"/>
<path d="M584 160.553H46.8787V169.31H584V160.553Z" fill="#F0F0F0"/>
<path d="M584 261.749H46.8787V270.507H584V261.749Z" fill="#F0F0F0"/>
<path d="M584 362.946H46.8787V371.703H584V362.946Z" fill="#F0F0F0"/>
<path d="M117.169 39.5601H102.129V54.0496H117.169V39.5601Z" fill="white"/>
<path d="M121.478 28.2063H109.396C108.797 28.2063 108.311 28.692 108.311 29.2911V33.0658C108.311 33.665 108.797 34.1507 109.396 34.1507H121.478C122.077 34.1507 122.563 33.665 122.563 33.0658V29.2911C122.563 28.692 122.077 28.2063 121.478 28.2063Z" fill="#2F2F2F"/>
<path d="M164.115 39.5601H149.075V54.0496H164.115V39.5601Z" fill="white"/>
<path d="M168.409 28.2063H156.327C155.728 28.2063 155.243 28.692 155.243 29.2911V33.0658C155.243 33.665 155.728 34.1507 156.327 34.1507H168.409C169.009 34.1507 169.494 33.665 169.494 33.0658V29.2911C169.494 28.692 169.009 28.2063 168.409 28.2063Z" fill="#2F2F2F"/>
<path d="M211.046 39.5601H196.006V54.0496H211.046V39.5601Z" fill="white"/>
<path d="M215.341 28.2063H203.259C202.659 28.2063 202.174 28.692 202.174 29.2911V33.0658C202.174 33.665 202.659 34.1507 203.259 34.1507H215.341C215.94 34.1507 216.425 33.665 216.425 33.0658V29.2911C216.425 28.692 215.94 28.2063 215.341 28.2063Z" fill="#2F2F2F"/>
<path d="M257.977 39.5601H242.938V54.0496H257.977V39.5601Z" fill="white"/>
<path d="M262.272 28.2063H250.19C249.591 28.2063 249.105 28.692 249.105 29.2911V33.0658C249.105 33.665 249.591 34.1507 250.19 34.1507H262.272C262.871 34.1507 263.357 33.665 263.357 33.0658V29.2911C263.357 28.692 262.871 28.2063 262.272 28.2063Z" fill="#2F2F2F"/>
<path d="M304.908 39.5601H289.869V54.0496H304.908V39.5601Z" fill="white"/>
<path d="M309.203 28.2063H297.121C296.522 28.2063 296.036 28.692 296.036 29.2911V33.0658C296.036 33.665 296.522 34.1507 297.121 34.1507H309.203C309.802 34.1507 310.288 33.665 310.288 33.0658V29.2911C310.288 28.692 309.802 28.2063 309.203 28.2063Z" fill="#2F2F2F"/>
<path d="M304.908 241.834H289.869V256.323H304.908V241.834Z" fill="white"/>
<path d="M309.203 230.465H297.121C296.522 230.465 296.036 230.951 296.036 231.55V235.325C296.036 235.924 296.522 236.41 297.121 236.41H309.203C309.802 236.41 310.288 235.924 310.288 235.325V231.55C310.288 230.951 309.802 230.465 309.203 230.465Z" fill="#2F2F2F"/>
<path d="M351.839 241.834H336.8V256.323H351.839V241.834Z" fill="white"/>
<path d="M356.134 230.465H344.052C343.453 230.465 342.967 230.951 342.967 231.55V235.325C342.967 235.924 343.453 236.41 344.052 236.41H356.134C356.733 236.41 357.219 235.924 357.219 235.325V231.55C357.219 230.951 356.733 230.465 356.134 230.465Z" fill="#2F2F2F"/>
<path d="M398.77 241.834H383.731V256.323H398.77V241.834Z" fill="white"/>
<path d="M403.065 230.465H390.983C390.384 230.465 389.898 230.951 389.898 231.55V235.325C389.898 235.924 390.384 236.41 390.983 236.41H403.065C403.664 236.41 404.15 235.924 404.15 235.325V231.55C404.15 230.951 403.664 230.465 403.065 230.465Z" fill="#2F2F2F"/>
<path d="M445.702 241.834H430.662V256.323H445.702V241.834Z" fill="white"/>
<path d="M449.996 230.465H437.914C437.315 230.465 436.83 230.951 436.83 231.55V235.325C436.83 235.924 437.315 236.41 437.914 236.41H449.996C450.596 236.41 451.081 235.924 451.081 235.325V231.55C451.081 230.951 450.596 230.465 449.996 230.465Z" fill="#2F2F2F"/>
<path d="M492.633 241.834H477.593V256.323H492.633V241.834Z" fill="white"/>
<path d="M496.928 230.465H484.846C484.247 230.465 483.761 230.951 483.761 231.55V235.325C483.761 235.924 484.247 236.41 484.846 236.41H496.928C497.527 236.41 498.013 235.924 498.013 235.325V231.55C498.013 230.951 497.527 230.465 496.928 230.465Z" fill="#2F2F2F"/>
<path d="M181.829 357.453H196.868V342.963H181.829V357.453Z" fill="white"/>
<path d="M177.534 337.539H189.616C190.215 337.539 190.701 337.053 190.701 336.454V332.679C190.701 332.08 190.215 331.594 189.616 331.594H177.534C176.935 331.594 176.449 332.08 176.449 332.679V336.454C176.449 337.053 176.935 337.539 177.534 337.539Z" fill="#2F2F2F"/>
<path d="M134.898 357.453H149.937V342.963H134.898V357.453Z" fill="white"/>
<path d="M130.588 337.539H142.67C143.269 337.539 143.755 337.053 143.755 336.454V332.679C143.755 332.08 143.269 331.594 142.67 331.594H130.588C129.989 331.594 129.503 332.08 129.503 332.679V336.454C129.503 337.053 129.989 337.539 130.588 337.539Z" fill="#2F2F2F"/>
<path d="M87.9666 357.453H103.006V342.963H87.9666V357.453Z" fill="white"/>
<path d="M83.6569 337.539H95.7389C96.338 337.539 96.8237 337.053 96.8237 336.454V332.679C96.8237 332.08 96.338 331.594 95.7389 331.594H83.6569C83.0577 331.594 82.572 332.08 82.572 332.679V336.454C82.572 337.053 83.0577 337.539 83.6569 337.539Z" fill="#2F2F2F"/>
<path d="M362.955 36.9148H349.224V59.6225H362.955V36.9148Z" fill="#E0E0E0"/>
<path d="M360.518 42.2054H349.224V54.3171H360.518V42.2054Z" fill="#2F2F2F"/>
<path d="M363.386 33.3779H348.793C348.177 33.3779 347.678 33.8769 347.678 34.4925V37.0783C347.678 37.6939 348.177 38.1929 348.793 38.1929H363.386C364.002 38.1929 364.501 37.6939 364.501 37.0783V34.4925C364.501 33.8769 364.002 33.3779 363.386 33.3779Z" fill="#F0F0F0"/>
<path d="M394.238 36.9148H380.506V59.6225H394.238V36.9148Z" fill="#E0E0E0"/>
<path d="M391.801 42.2054H380.506V54.3171H391.801V42.2054Z" fill="#2F2F2F"/>
<path d="M394.684 33.3779H380.09C379.475 33.3779 378.975 33.8769 378.975 34.4925V37.0783C378.975 37.6939 379.475 38.1929 380.09 38.1929H394.684C395.299 38.1929 395.798 37.6939 395.798 37.0783V34.4925C395.798 33.8769 395.299 33.3779 394.684 33.3779Z" fill="#F0F0F0"/>
<path d="M425.535 36.9148H411.804V59.6225H425.535V36.9148Z" fill="#E0E0E0"/>
<path d="M423.098 42.2054H411.804V54.3171H423.098V42.2054Z" fill="#2F2F2F"/>
<path d="M425.966 33.3779H411.373C410.757 33.3779 410.258 33.8769 410.258 34.4925V37.0783C410.258 37.6939 410.757 38.1929 411.373 38.1929H425.966C426.582 38.1929 427.081 37.6939 427.081 37.0783V34.4925C427.081 33.8769 426.582 33.3779 425.966 33.3779Z" fill="#F0F0F0"/>
<path d="M456.818 36.9148H443.086V59.6225H456.818V36.9148Z" fill="#E0E0E0"/>
<path d="M454.38 42.2054H443.086V54.3171H454.38V42.2054Z" fill="#2F2F2F"/>
<path d="M457.249 33.3779H442.655C442.039 33.3779 441.54 33.8769 441.54 34.4925V37.0783C441.54 37.6939 442.039 38.1929 442.655 38.1929H457.249C457.864 38.1929 458.363 37.6939 458.363 37.0783V34.4925C458.363 33.8769 457.864 33.3779 457.249 33.3779Z" fill="#F0F0F0"/>
<path d="M138.286 138.044H124.554V160.752H138.286V138.044Z" fill="#E0E0E0"/>
<path d="M135.849 143.35H124.554V155.461H135.849V143.35Z" fill="#2F2F2F"/>
<path d="M138.717 134.507H124.123C123.508 134.507 123.009 135.006 123.009 135.622V138.208C123.009 138.823 123.508 139.322 124.123 139.322H138.717C139.333 139.322 139.832 138.823 139.832 138.208V135.622C139.832 135.006 139.333 134.507 138.717 134.507Z" fill="#F0F0F0"/>
<path d="M169.583 138.044H155.852V160.752H169.583V138.044Z" fill="#E0E0E0"/>
<path d="M167.146 143.35H155.852V155.461H167.146V143.35Z" fill="#2F2F2F"/>
<path d="M170.014 134.507H155.421C154.805 134.507 154.306 135.006 154.306 135.622V138.208C154.306 138.823 154.805 139.322 155.421 139.322H170.014C170.63 139.322 171.129 138.823 171.129 138.208V135.622C171.129 135.006 170.63 134.507 170.014 134.507Z" fill="#F0F0F0"/>
<path d="M200.866 138.044H187.134V160.752H200.866V138.044Z" fill="#E0E0E0"/>
<path d="M198.429 143.35H187.134V155.461H198.429V143.35Z" fill="#2F2F2F"/>
<path d="M201.297 134.507H186.703C186.088 134.507 185.589 135.006 185.589 135.622V138.208C185.589 138.823 186.088 139.322 186.703 139.322H201.297C201.912 139.322 202.411 138.823 202.411 138.208V135.622C202.411 135.006 201.912 134.507 201.297 134.507Z" fill="#F0F0F0"/>
<path d="M232.148 138.044H218.417V160.752H232.148V138.044Z" fill="#E0E0E0"/>
<path d="M229.711 143.35H218.417V155.461H229.711V143.35Z" fill="#2F2F2F"/>
<path d="M232.594 134.507H218.001C217.385 134.507 216.886 135.006 216.886 135.622V138.208C216.886 138.823 217.385 139.322 218.001 139.322H232.594C233.21 139.322 233.709 138.823 233.709 138.208V135.622C233.709 135.006 233.21 134.507 232.594 134.507Z" fill="#F0F0F0"/>
<path d="M480.878 340.318H467.146V363.026H480.878V340.318Z" fill="#E0E0E0"/>
<path d="M478.441 345.608H467.146V357.72H478.441V345.608Z" fill="#2F2F2F"/>
<path d="M481.309 336.781H466.715C466.099 336.781 465.6 337.28 465.6 337.896V340.481C465.6 341.097 466.099 341.596 466.715 341.596H481.309C481.924 341.596 482.423 341.097 482.423 340.481V337.896C482.423 337.28 481.924 336.781 481.309 336.781Z" fill="#F0F0F0"/>
<path d="M512.16 340.318H498.429V363.026H512.16V340.318Z" fill="#E0E0E0"/>
<path d="M509.723 345.608H498.429V357.72H509.723V345.608Z" fill="#2F2F2F"/>
<path d="M512.591 336.781H497.998C497.382 336.781 496.883 337.28 496.883 337.896V340.481C496.883 341.097 497.382 341.596 497.998 341.596H512.591C513.207 341.596 513.706 341.097 513.706 340.481V337.896C513.706 337.28 513.207 336.781 512.591 336.781Z" fill="#F0F0F0"/>
<path d="M543.443 340.318H529.711V363.026H543.443V340.318Z" fill="#E0E0E0"/>
<path d="M541.005 345.608H529.711V357.72H541.005V345.608Z" fill="#2F2F2F"/>
<path d="M543.888 336.781H529.295C528.679 336.781 528.18 337.28 528.18 337.896V340.481C528.18 341.097 528.679 341.596 529.295 341.596H543.888C544.504 341.596 545.003 341.097 545.003 340.481V337.896C545.003 337.28 544.504 336.781 543.888 336.781Z" fill="#F0F0F0"/>
<path d="M574.74 340.318H561.008V363.026H574.74V340.318Z" fill="#E0E0E0"/>
<path d="M572.303 345.608H561.008V357.72H572.303V345.608Z" fill="#2F2F2F"/>
<path d="M575.171 336.781H560.577C559.962 336.781 559.463 337.28 559.463 337.896V340.481C559.463 341.097 559.962 341.596 560.577 341.596H575.171C575.787 341.596 576.286 341.097 576.286 340.481V337.896C576.286 337.28 575.787 336.781 575.171 336.781Z" fill="#F0F0F0"/>
<path d="M370.282 137.435H345.033V160.752H370.282V137.435Z" fill="#2F2F2F"/>
<path d="M370.267 160.737H380.447V137.42H370.267V160.737Z" fill="#E6E6E6"/>
<path d="M397.225 137.435H371.976V160.752H397.225V137.435Z" fill="#2F2F2F"/>
<path d="M397.21 160.737H407.39V137.42H397.21V160.737Z" fill="#E6E6E6"/>
<path d="M424.168 137.435H398.919V160.752H424.168V137.435Z" fill="#2F2F2F"/>
<path d="M424.168 160.737H434.348V137.42H424.168V160.737Z" fill="#E6E6E6"/>
<path d="M382.899 114.118H357.65V137.435H382.899V114.118Z" fill="#2F2F2F"/>
<path d="M382.899 137.42H393.079V114.103H382.899V137.42Z" fill="#E6E6E6"/>
<path d="M409.842 114.118H384.593V137.435H409.842V114.118Z" fill="#2F2F2F"/>
<path d="M409.842 137.42H420.022V114.103H409.842V137.42Z" fill="#E6E6E6"/>
<path d="M482.884 137.435H457.635V160.752H482.884V137.435Z" fill="#2F2F2F"/>
<path d="M482.899 160.737H493.079V137.42H482.899V160.737Z" fill="#E6E6E6"/>
<path d="M509.842 137.435H484.593V160.752H509.842V137.435Z" fill="#2F2F2F"/>
<path d="M509.827 160.737H520.007V137.42H509.827V160.737Z" fill="#E6E6E6"/>
<path d="M536.785 137.435H511.536V160.752H536.785V137.435Z" fill="#2F2F2F"/>
<path d="M536.77 160.737H546.95V137.42H536.77V160.737Z" fill="#E6E6E6"/>
<path d="M495.516 114.118H470.267V137.435H495.516V114.118Z" fill="#2F2F2F"/>
<path d="M495.516 137.42H505.696V114.103H495.516V137.42Z" fill="#E6E6E6"/>
<path d="M522.459 114.118H497.21V137.435H522.459V114.118Z" fill="#2F2F2F"/>
<path d="M522.459 137.42H532.639V114.103H522.459V137.42Z" fill="#E6E6E6"/>
<path d="M251.171 339.694H225.922V363.011H251.171V339.694Z" fill="#2F2F2F"/>
<path d="M251.171 363.026H261.35V339.709H251.171V363.026Z" fill="#E6E6E6"/>
<path d="M278.114 339.694H252.865V363.011H278.114V339.694Z" fill="#2F2F2F"/>
<path d="M278.114 363.026H288.293V339.709H278.114V363.026Z" fill="#E6E6E6"/>
<path d="M305.057 339.694H279.808V363.011H305.057V339.694Z" fill="#2F2F2F"/>
<path d="M305.057 363.026H315.237V339.709H305.057V363.026Z" fill="#E6E6E6"/>
<path d="M263.788 316.377H238.539V339.694H263.788V316.377Z" fill="#2F2F2F"/>
<path d="M263.802 339.709H273.982V316.392H263.802V339.709Z" fill="#E6E6E6"/>
<path d="M290.745 316.377H265.497V339.694H290.745V316.377Z" fill="#2F2F2F"/>
<path d="M290.731 339.709H300.91V316.392H290.731V339.709Z" fill="#E6E6E6"/>
<path d="M363.788 339.694H338.539V363.011H363.788V339.694Z" fill="#2F2F2F"/>
<path d="M363.773 363.026H373.952V339.709H363.773V363.026Z" fill="#E6E6E6"/>
<path d="M390.731 339.694H365.482V363.011H390.731V339.694Z" fill="#2F2F2F"/>
<path d="M390.731 363.026H400.91V339.709H390.731V363.026Z" fill="#E6E6E6"/>
<path d="M417.674 339.694H392.425V363.011H417.674V339.694Z" fill="#2F2F2F"/>
<path d="M417.674 363.026H427.853V339.709H417.674V363.026Z" fill="#E6E6E6"/>
<path d="M376.405 316.377H351.156V339.694H376.405V316.377Z" fill="#2F2F2F"/>
<path d="M376.405 339.709H386.584V316.392H376.405V339.709Z" fill="#E6E6E6"/>
<path d="M403.348 316.377H378.099V339.694H403.348V316.377Z" fill="#2F2F2F"/>
<path d="M403.362 339.709H413.542V316.392H403.362V339.709Z" fill="#E6E6E6"/>
<path d="M120.081 234.314H90.2403V261.881H120.081V234.314Z" fill="#2F2F2F"/>
<path d="M120.081 261.881L132.119 261.881V234.314L120.081 234.314V261.881Z" fill="#E6E6E6"/>
<path d="M151.928 234.314H122.088V261.881H151.928V234.314Z" fill="#2F2F2F"/>
<path d="M151.928 261.881L163.966 261.881V234.314L151.928 234.314V261.881Z" fill="#E6E6E6"/>
<path d="M183.791 234.314H153.95V261.881H183.791V234.314Z" fill="#2F2F2F"/>
<path d="M183.791 261.881L195.828 261.881V234.314L183.791 234.314V261.881Z" fill="#E6E6E6"/>
<path d="M135.002 206.747H105.161V234.314H135.002V206.747Z" fill="#2F2F2F"/>
<path d="M135.002 234.329H147.039V206.762H135.002V234.329Z" fill="#E6E6E6"/>
<path d="M166.864 206.747H137.023V234.314H166.864V206.747Z" fill="#2F2F2F"/>
<path d="M166.864 234.329H178.901V206.762H166.864V234.329Z" fill="#E6E6E6"/>
<path d="M504.745 40.7936H484.37V59.6076H504.745V40.7936Z" fill="#2F2F2F"/>
<path d="M504.744 59.6225H512.963V40.8084H504.744V59.6225Z" fill="#E6E6E6"/>
<path d="M526.486 40.7936H506.112V59.6076H526.486V40.7936Z" fill="#2F2F2F"/>
<path d="M526.486 59.6225H534.704V40.8084H526.486V59.6225Z" fill="#E6E6E6"/>
<path d="M548.228 40.7936H527.854V59.6076H548.228V40.7936Z" fill="#2F2F2F"/>
<path d="M548.228 59.6225H556.446V40.8084H548.228V59.6225Z" fill="#E6E6E6"/>
<path d="M514.924 21.9795H494.55V40.7936H514.924V21.9795Z" fill="#2F2F2F"/>
<path d="M514.939 40.8084H523.157V21.9943H514.939V40.8084Z" fill="#E6E6E6"/>
<path d="M536.681 21.9795H516.306V40.7936H536.681V21.9795Z" fill="#2F2F2F"/>
<path d="M536.681 40.8084H544.899V21.9943H536.681V40.8084Z" fill="#E6E6E6"/>
<path d="M288.99 553.663C448.125 553.663 577.13 546.131 577.13 536.84C577.13 527.549 448.125 520.018 288.99 520.018C129.854 520.018 0.848967 527.549 0.848967 536.84C0.848967 546.131 129.854 553.663 288.99 553.663Z" fill="#2F2F2F"/>
<path d="M414.313 206.405H231.537C205.815 206.405 184.962 227.257 184.962 252.98V490.266C184.962 515.988 205.815 536.84 231.537 536.84H414.313C440.035 536.84 460.887 515.988 460.887 490.266V252.98C460.887 227.257 440.035 206.405 414.313 206.405Z" fill="#1AEBFF"/>
<path d="M409.691 185.273H236.144V237.286H409.691V185.273Z" fill="#1AEBFF"/>
<path d="M409.691 193.194L236.144 198.321V185.273H409.691V193.194Z" fill="#263238"/>
<path d="M416.587 133.512H229.263C226.957 133.512 225.087 135.381 225.087 137.688V184.232C225.087 186.539 226.957 188.408 229.263 188.408H416.587C418.893 188.408 420.763 186.539 420.763 184.232V137.688C420.763 135.381 418.893 133.512 416.587 133.512Z" fill="#1AEBFF"/>
<path d="M416.587 133.512H229.263C226.957 133.512 225.087 135.381 225.087 137.688V184.232C225.087 186.539 226.957 188.408 229.263 188.408H416.587C418.893 188.408 420.763 186.539 420.763 184.232V137.688C420.763 135.381 418.893 133.512 416.587 133.512Z" fill="white"/>
<path d="M285.275 281.706H460.887V462.342H285.275C282.119 462.342 278.994 461.72 276.079 460.513C273.163 459.305 270.514 457.535 268.283 455.304C266.051 453.072 264.281 450.423 263.073 447.508C261.866 444.592 261.244 441.467 261.244 438.312V305.721C261.248 299.351 263.782 293.242 268.288 288.739C272.794 284.236 278.904 281.706 285.275 281.706Z" fill="white"/>
<path d="M205.025 462.342H184.962V281.706H205.025C211.398 281.706 217.51 284.238 222.017 288.744C226.523 293.251 229.055 299.363 229.055 305.736V438.326C229.051 444.697 226.518 450.806 222.012 455.309C217.505 459.812 211.396 462.342 205.025 462.342Z" fill="white"/>
<path d="M28.0893 326.111L22.1449 327.151C16.7058 330.911 21.9368 338.832 21.9368 338.832L23.2297 343.855C23.402 344.651 23.8717 345.351 24.5429 345.812C25.2141 346.274 26.0361 346.461 26.841 346.337L30.9723 345.653C31.9129 345.445 32.7409 344.891 33.2917 344.101C33.8424 343.311 34.0755 342.342 33.9446 341.388L33.4096 336.826C33.2574 335.532 32.8427 334.283 32.1909 333.155L28.0893 326.111Z" fill="#FFC3BD"/>
<path d="M57.425 249.666L51.7035 259.89L46.0117 270.174L40.528 280.487L37.9273 285.629L36.679 288.171L36.3669 288.81L36.2183 289.122C36.2183 289.27 36.2183 289.122 36.2183 289.211H35.9805C35.9805 289.211 35.9805 289.211 35.9805 289.359V296.983C35.9805 301.055 35.9805 305.127 35.9805 309.199L35.7427 321.4C35.5941 325.472 35.4901 329.544 35.2672 333.616L16.6611 334.507C15.9627 330.539 15.3831 326.572 14.7738 322.618L13.1242 310.73C12.6189 306.762 12.0988 302.794 11.6381 298.841L10.9545 292.896L10.7762 291.41C10.4815 288.472 10.6723 285.504 11.3409 282.627C11.5783 281.667 11.866 280.719 12.2028 279.789L12.8419 278.035L13.9713 275.063C14.7441 273.087 15.5466 271.125 16.3491 269.119C17.9689 265.24 19.6482 261.436 21.4167 257.691C24.909 250.141 28.5203 242.83 32.5773 235.518L57.425 249.666Z" fill="#1AEBFF"/>
<path d="M57.425 249.666L51.7035 259.89L46.0117 270.174L40.528 280.487L37.9273 285.629L36.679 288.171L36.3669 288.81L36.2183 289.122C36.2183 289.27 36.2183 289.122 36.2183 289.211H35.9805C35.9805 289.211 35.9805 289.211 35.9805 289.359V296.983C35.9805 301.055 35.9805 305.127 35.9805 309.199L35.7427 321.4C35.5941 325.472 35.4901 329.544 35.2672 333.616L16.6611 334.507C15.9627 330.539 15.3831 326.572 14.7738 322.618L13.1242 310.73C12.6189 306.762 12.0988 302.794 11.6381 298.841L10.9545 292.896L10.7762 291.41C10.4815 288.472 10.6723 285.504 11.3409 282.627C11.5783 281.667 11.866 280.719 12.2028 279.789L12.8419 278.035L13.9713 275.063C14.7441 273.087 15.5466 271.125 16.3491 269.119C17.9689 265.24 19.6482 261.436 21.4167 257.691C24.909 250.141 28.5203 242.83 32.5773 235.518L57.425 249.666Z" fill="white"/>
<path d="M153.204 221.92C156.414 196.032 159.149 177.694 174.768 177.694C186.404 177.694 198.308 200.877 195.811 226.854C193.418 251.702 179.033 270.218 164.053 271.66L154.913 526.557C154.738 529.261 153.55 531.8 151.586 533.667C149.623 535.534 147.027 536.593 144.318 536.632H138.15C136.863 536.665 135.583 536.418 134.4 535.909C133.217 535.399 132.158 534.64 131.297 533.682C130.435 532.725 129.792 531.592 129.41 530.362C129.028 529.132 128.917 527.834 129.085 526.557L155.523 266.667C149.4 258.686 150.916 240.452 153.204 221.92Z" fill="#1AEBFF"/>
<path d="M153.204 221.92C156.414 196.032 159.149 177.694 174.768 177.694C186.404 177.694 198.308 200.877 195.811 226.854C193.418 251.702 179.033 270.218 164.053 271.66L154.913 526.557C154.738 529.261 153.55 531.8 151.586 533.667C149.623 535.534 147.027 536.593 144.318 536.632H138.15C136.863 536.665 135.583 536.418 134.4 535.909C133.217 535.399 132.158 534.64 131.297 533.682C130.435 532.725 129.792 531.592 129.41 530.362C129.028 529.132 128.917 527.834 129.085 526.557L155.523 266.667C149.4 258.686 150.916 240.452 153.204 221.92Z" fill="white"/>
<path d="M115.517 531.49C105.114 530.688 99.6155 523.57 99.8681 516.02C100.017 511.859 86.7012 511.487 86.7012 511.487C89.6734 524.387 87.0876 526.23 86.4337 529.558C85.7798 532.887 86.2108 536.573 88.9601 536.647C92.2592 536.721 93.7602 536.097 97.8767 536.246C102.677 536.439 105.902 536.632 114.417 536.647C117.805 536.647 120.153 531.847 115.517 531.49Z" fill="#1AEBFF"/>
<path d="M38.6555 531.773C31.9086 529.484 31.5668 522.5 32.4584 515.307C32.9934 511.057 19.7523 511.874 19.7523 511.874C18.7863 522.143 16.9138 522.544 15.1305 525.665C13.3471 528.786 13.258 532.189 15.8289 533.095C18.9052 534.225 20.6142 533.913 24.6118 534.582C29.3079 535.414 33.5284 536.558 39.2499 536.558C42.6531 536.647 42.9801 533.244 38.6555 531.773Z" fill="#1AEBFF"/>
<path d="M105.515 305.989C105.515 305.989 111.95 358.463 106.006 404.072C106.318 442.592 100.804 517.848 100.804 517.848C96.2646 518.923 91.5313 518.878 87.0133 517.714C87.0133 517.714 66.5497 465.299 71.8253 403.418C52.402 341.388 53.784 307.951 53.784 307.951L105.515 305.989Z" fill="#263238"/>
<path d="M85.0665 306.732C85.0665 306.732 74.5003 382.018 62.9236 417.893C50.7524 455.565 33.3798 514.192 32.9043 516.971C27.5097 517.476 22.5015 517.372 18.4742 515.634C18.4742 515.634 12.1583 449.651 27.7178 408.753C31.6411 323.362 40.7955 308.337 40.7955 308.337L85.0665 306.732Z" fill="#263238"/>
<path d="M56.0726 204.726C58.1532 211.963 60.3526 223.807 57.7074 230.242C57.7074 230.242 67.367 230.376 81.485 240.853C87.6226 231.104 81.1878 229.469 81.1878 229.469C75.4069 228.34 74.2477 221.4 74.0545 215.976L56.0726 204.726Z" fill="#FFC3BD"/>
<path d="M103.227 247.184C103.227 238.371 97.1188 232.159 85.8839 230.153C75.4812 228.295 61.0362 228.028 51.4954 230.941C41.9546 233.853 39.1608 239.203 40.9589 246.485C48.7313 277.916 39.4728 298.499 40.8401 308.337C64.6177 310.611 100.418 310.061 105.56 305.989C109.008 301.011 103.97 274.038 102.038 270.114C111.311 263.174 103.227 252.103 103.227 247.184Z" fill="#1AEBFF"/>
<path d="M82.124 191.187C82.347 192.168 83.0306 192.837 83.6102 192.674C84.1897 192.51 84.591 191.633 84.3829 190.667C84.1749 189.701 83.4913 189.018 82.8968 189.181C82.3024 189.345 81.916 190.221 82.124 191.187Z" fill="#263238"/>
<path d="M82.6293 189.3L84.8139 188.126C84.8139 188.126 84.0114 190.221 82.6293 189.3Z" fill="#263238"/>
<path d="M82.8968 193.075C84.2323 195.105 85.8427 196.941 87.6821 198.529C87.2647 198.989 86.7519 199.352 86.1795 199.594C85.6071 199.835 84.9888 199.948 84.368 199.926L82.8968 193.075Z" fill="#ED847E"/>
<path d="M82.7185 199.762C79.5828 199.762 77.0118 195.408 76.9821 190.043C76.8961 187.676 77.4072 185.325 78.4682 183.207C78.821 182.394 79.3843 181.69 80.1002 181.167C80.816 180.645 81.6583 180.323 82.5401 180.235C85.661 180.235 88.2319 184.589 88.2765 189.954C88.3369 192.324 87.7949 194.671 86.7012 196.775C86.3524 197.591 85.7901 198.298 85.0735 198.821C84.3569 199.344 83.5126 199.664 82.6293 199.747L82.7185 199.762ZM82.7185 180.993C81.9676 181.078 81.2533 181.363 80.6497 181.818C80.046 182.273 79.5751 182.881 79.2856 183.579C78.251 185.573 77.7396 187.797 77.7995 190.043C77.7995 194.992 80.0732 198.96 82.7928 198.96C83.5422 198.87 84.2544 198.583 84.8573 198.129C85.4602 197.675 85.9323 197.069 86.2257 196.374C87.2603 194.38 87.7716 192.155 87.7118 189.909C87.6078 185.02 85.3935 180.993 82.6442 180.993H82.7185Z" fill="#263238"/>
<path d="M83.1643 185.213C83.2548 185.094 83.2973 184.946 83.2832 184.797C83.2741 184.721 83.2498 184.647 83.2118 184.58C83.1739 184.513 83.123 184.455 83.0621 184.408C83.0013 184.361 82.9317 184.326 82.8574 184.306C82.7831 184.286 82.7055 184.281 82.6293 184.292C81.7103 184.382 80.8261 184.691 80.0506 185.193C79.2751 185.694 78.6307 186.374 78.171 187.175C78.1271 187.311 78.1335 187.458 78.1891 187.589C78.2447 187.721 78.3457 187.828 78.4738 187.891C78.6018 187.954 78.7483 187.969 78.8865 187.933C79.0246 187.897 79.1452 187.813 79.2262 187.695C79.5931 187.062 80.1078 186.527 80.7263 186.137C81.3449 185.746 82.0488 185.511 82.7779 185.451C82.9325 185.424 83.0709 185.339 83.1643 185.213Z" fill="#263238"/>
<path d="M49.9796 196.418C53.249 208.188 54.4379 213.241 61.6158 218.086C72.4792 225.383 85.9136 218.814 86.1514 206.331C86.3594 195.081 80.9649 177.723 68.4965 175.45C56.028 173.176 46.7548 184.663 49.9796 196.418Z" fill="#FFC3BD"/>
<path d="M32.6665 234.805C39.1608 226.111 68.7491 225.308 90.9218 228.756C113.094 232.204 111.118 254.168 111.593 269.208C112.069 284.247 117.33 390.117 110.583 429.975C79.8949 435.176 31.2993 432.204 17.211 427.508C20.1832 413.137 31.1358 303.344 31.2993 274.944C31.3736 261.064 25.8155 243.974 32.6665 234.805Z" fill="#1AEBFF"/>
<path d="M32.6665 234.805C39.1608 226.111 68.7491 225.308 90.9218 228.756C113.094 232.204 111.118 254.168 111.593 269.208C112.069 284.247 117.33 390.117 110.583 429.975C79.8949 435.176 31.2993 432.204 17.211 427.508C20.1832 413.137 31.1358 303.344 31.2993 274.944C31.3736 261.064 25.8155 243.974 32.6665 234.805Z" fill="white"/>
<path d="M112.218 285.228C107.12 280.413 102.647 275.687 100.998 272.596C95.0531 261.525 105.59 292.629 113.05 308.486C112.768 299.643 112.47 291.707 112.218 285.228Z" fill="#1AEBFF"/>
<path d="M148.018 281.988L147.245 287.933C149.192 294.249 158.317 291.633 158.317 291.633L163.503 291.916C164.314 291.993 165.125 291.758 165.769 291.258C166.412 290.758 166.841 290.031 166.966 289.226L167.545 285.079C167.634 284.119 167.358 283.16 166.771 282.394C166.184 281.629 165.33 281.112 164.38 280.948L159.922 280.086C158.643 279.81 157.321 279.81 156.043 280.086L148.018 281.988Z" fill="#FFC3BD"/>
<path d="M146.398 282.672C148.924 278.214 154.572 278.451 158.866 277.56C159.595 277.396 160.947 278.823 160.145 279.7C159.65 280.309 159.036 280.812 158.342 281.177C157.647 281.543 156.885 281.763 156.102 281.825C156.102 283.445 154.111 287.665 148.568 287.175C147.278 286.02 146.498 284.401 146.398 282.672Z" fill="#FFC3BD"/>
<path d="M106.883 239.263L108.993 243.483L111.267 247.838C112.753 250.736 114.328 253.619 115.933 256.457C117.538 259.296 119.188 262.045 120.852 264.764C121.684 266.132 122.546 267.439 123.393 268.747C123.824 269.416 124.255 270.04 124.701 270.679L125.34 271.63L125.667 272.106L125.771 272.269C126.266 273.151 127.004 273.873 127.896 274.35C128.935 274.738 130.011 275.022 131.106 275.197C132.592 275.479 134.078 275.717 135.564 275.925C138.626 276.371 141.836 276.668 145.075 276.921C146.695 277.025 148.33 277.159 149.965 277.248L154.765 277.471L156.801 295.987C154.809 296.433 153.1 296.76 151.243 297.072C149.385 297.384 147.602 297.682 145.759 297.905C142.088 298.38 138.329 298.692 134.494 298.811C132.577 298.811 130.616 298.811 128.55 298.811C127.554 298.811 126.514 298.707 125.474 298.618C124.143 298.519 122.822 298.32 121.521 298.023C115.672 296.695 110.362 293.628 106.288 289.226L105.069 287.844L104.133 286.759C103.494 286.031 102.855 285.273 102.261 284.559C101.027 283.073 99.883 281.587 98.7387 280.101C96.465 277.129 94.2804 274.157 92.3039 271.021C90.3273 267.885 88.2914 264.868 86.3594 261.718C85.4529 260.143 84.5315 258.552 83.6399 256.962C82.7482 255.372 81.9309 253.797 80.9946 251.939L106.883 239.263Z" fill="#1AEBFF"/>
<path d="M106.883 239.263L108.993 243.483L111.267 247.838C112.753 250.736 114.328 253.619 115.933 256.457C117.538 259.296 119.188 262.045 120.852 264.764C121.684 266.132 122.546 267.439 123.393 268.747C123.824 269.416 124.255 270.04 124.701 270.679L125.34 271.63L125.667 272.106L125.771 272.269C126.266 273.151 127.004 273.873 127.896 274.35C128.935 274.738 130.011 275.022 131.106 275.197C132.592 275.479 134.078 275.717 135.564 275.925C138.626 276.371 141.836 276.668 145.075 276.921C146.695 277.025 148.33 277.159 149.965 277.248L154.765 277.471L156.801 295.987C154.809 296.433 153.1 296.76 151.243 297.072C149.385 297.384 147.602 297.682 145.759 297.905C142.088 298.38 138.329 298.692 134.494 298.811C132.577 298.811 130.616 298.811 128.55 298.811C127.554 298.811 126.514 298.707 125.474 298.618C124.143 298.519 122.822 298.32 121.521 298.023C115.672 296.695 110.362 293.628 106.288 289.226L105.069 287.844L104.133 286.759C103.494 286.031 102.855 285.273 102.261 284.559C101.027 283.073 99.883 281.587 98.7387 280.101C96.465 277.129 94.2804 274.157 92.3039 271.021C90.3273 267.885 88.2914 264.868 86.3594 261.718C85.4529 260.143 84.5315 258.552 83.6399 256.962C82.7482 255.372 81.9309 253.797 80.9946 251.939L106.883 239.263Z" fill="white"/>
<path d="M68.1249 306.509C68.1249 306.509 47.5424 305.112 41.5385 302.214C48.7758 307.029 58.6436 307.624 68.1249 306.509Z" fill="#1AEBFF"/>
<path d="M65.8066 308.456C65.8066 308.456 50.6483 309.229 45.9077 307.639C51.7926 310.507 59.1043 310.12 65.8066 308.456Z" fill="#1AEBFF"/>
<path d="M69.0463 170.248C45.4321 160.009 24.4632 169.193 32.2207 186.15C39.9781 203.106 22.1449 206.375 18.8457 225.561C15.5466 244.747 23.0365 258.746 42.6234 264.854C67.7831 272.7 90.9367 269.148 89.51 245.534C88.0833 221.92 74.2031 205.93 78.1413 194.531C82.0795 183.133 85.1706 166.444 69.0463 170.248Z" fill="#263238"/>
<path d="M75.5555 194.932H75.4366C75.344 194.899 75.2685 194.83 75.2267 194.741C75.1849 194.652 75.1802 194.549 75.2137 194.457C76.031 192.213 86.6418 188.884 87.8455 188.512C87.9401 188.485 88.0418 188.496 88.1282 188.543C88.2146 188.591 88.2786 188.67 88.3062 188.765C88.3344 188.858 88.3254 188.958 88.281 189.044C88.2366 189.13 88.1603 189.195 88.0685 189.226C83.6101 190.593 76.4323 193.298 75.9121 194.724C75.8771 194.788 75.8254 194.841 75.7626 194.878C75.6998 194.914 75.6282 194.933 75.5555 194.932Z" fill="#263238"/>
<path d="M73.2074 200.253C73.5952 201.358 74.2226 202.365 75.0447 203.2C75.8668 204.035 76.8633 204.678 77.9629 205.083C80.6677 205.87 82.02 202.437 81.2621 199.019C80.5785 195.943 78.2899 191.812 75.6298 192.57C72.9696 193.327 72.0185 197.251 73.2074 200.253Z" fill="#FFC3BD"/>
<path d="M434.734 528.726C437.42 526.897 439.91 524.795 442.165 522.455H359.285L355.272 447.317H455.049V441.046H354.93L350.903 365.879H455.049V359.637H350.576L346.549 284.47H455.034V278.199H346.222L342.194 203.032H403.853V196.76H341.853L338.479 133.571H328.567L350.145 536.885H360.057L359.626 528.786L434.734 528.726Z" fill="#263238"/>
<path d="M454.41 95.7943L456.966 110.655H341.11L338.554 95.7943H328.641L404.566 538.98H414.479L411.922 524.119H527.839L530.395 538.98H540.248L464.323 95.7943H454.41ZM458.036 116.927L470.921 192.094H355.005L342.12 116.927H458.036ZM382.929 354.971L370.044 279.804H485.96L498.845 354.971H382.929ZM499.915 361.242L512.799 436.409H396.883L383.999 361.242H499.915ZM368.959 273.562L356.075 198.395H471.991L484.875 273.562H368.959ZM410.852 517.878L397.968 442.711H513.884L526.769 517.878H410.852Z" fill="#263238"/>
<path d="M448.912 98.2316C449.915 95.7588 451.728 93.6997 454.054 92.3912C454.77 89.9351 454.602 87.3054 453.578 84.9607L480.328 73.7257C478.931 83.0139 477.846 90.3552 481.621 94.5312C476.509 98.3208 467.146 105.127 456.357 105.796C445.568 106.465 447.5 102.199 448.912 98.2316Z" fill="#B55B52"/>
<path d="M447.604 60.9304L447.767 69.9659C447.767 69.9659 444.334 70.8129 442.269 69.2971C443.267 66.0813 445.109 63.1921 447.604 60.9304Z" fill="#A02724"/>
<path d="M447.752 59.682C447.648 60.752 446.995 61.5545 446.266 61.4802C445.538 61.4059 445.092 60.4845 445.182 59.4145C445.271 58.3445 445.939 57.5272 446.668 57.6015C447.396 57.6758 447.857 58.612 447.752 59.682Z" fill="#263238"/>
<path d="M446.623 51.2558C446.641 51.3578 446.684 51.4537 446.749 51.5343C446.814 51.6149 446.899 51.6776 446.995 51.7165C447.739 51.9844 448.408 52.4284 448.943 53.0106C449.479 53.5929 449.866 54.2961 450.071 55.0602C450.087 55.1416 450.119 55.2189 450.165 55.2878C450.211 55.3566 450.27 55.4156 450.34 55.4612C450.409 55.5069 450.486 55.5383 450.568 55.5536C450.649 55.569 450.733 55.568 450.814 55.5507C450.895 55.5347 450.973 55.5028 451.041 55.4566C451.11 55.4105 451.169 55.3511 451.215 55.2819C451.26 55.2128 451.292 55.1352 451.307 55.0538C451.323 54.9723 451.322 54.8886 451.304 54.8076C451.058 53.8334 450.577 52.9342 449.903 52.1883C449.23 51.4423 448.384 50.8722 447.44 50.5276C447.333 50.4882 447.218 50.4781 447.106 50.4983C446.994 50.5185 446.889 50.5683 446.803 50.6426C446.716 50.7169 446.651 50.8129 446.615 50.9207C446.578 51.0285 446.57 51.1442 446.593 51.2558H446.623Z" fill="#263238"/>
<path d="M484.355 59.3253C482.304 72.3882 480.625 81.2157 472.466 86.0752C456.268 95.6755 447.842 87.6505 445.939 74.1864C444.23 62.0746 447.871 42.7404 461.246 38.8468C464.207 37.9808 467.339 37.8801 470.35 38.5541C473.36 39.2282 476.15 40.655 478.459 42.701C480.768 44.747 482.52 47.3453 483.551 50.2528C484.582 53.1603 484.859 56.2818 484.355 59.3253Z" fill="#B55B52"/>
<path d="M456.506 65.2549C450.561 63.9471 448.763 57.4529 452.434 55.0008C449.996 49.7103 446.489 48.774 446.578 42.5175C446.668 36.261 453.162 28.7711 466.641 29.9599C464.783 31.0002 462.866 31.9364 462.866 31.9364C462.866 31.9364 473.269 30.1977 481.71 35.1167C490.151 40.0357 494.892 37.0189 494.892 37.0189C494.834 37.8936 494.539 38.736 494.039 39.456C493.539 40.1759 492.853 40.7462 492.053 41.1057C494.208 42.2203 499.35 52.4893 491.429 61.287C483.508 70.0847 480.803 75.9251 483.568 79.4472C479.6 83.638 470.193 83.3854 464.04 80.0268C457.888 76.6682 456.506 65.2549 456.506 65.2549Z" fill="#263238"/>
<path d="M463.788 63.7539C463.349 65.1162 462.645 66.3782 461.717 67.4673C460.788 68.5563 459.654 69.451 458.378 70.0996C454.96 71.8235 452.434 68.9256 452.79 65.3143C453.088 62.0746 455.213 57.2597 458.958 57.0516C459.777 57.0141 460.592 57.1813 461.331 57.5383C462.069 57.8952 462.707 58.4305 463.186 59.0958C463.666 59.7611 463.972 60.5354 464.077 61.3487C464.182 62.1621 464.082 62.9887 463.788 63.7539Z" fill="#B55B52"/>
<path d="M444.959 405.082L465.11 405.276L464.352 429.038L447.515 428.905L444.959 405.082Z" fill="#B55B52"/>
<path d="M444.973 405.082L465.11 405.276L464.679 418.591L446.4 418.428L444.973 405.082Z" fill="black"/>
<path d="M466.344 310.418C473.373 279.209 485.009 246.129 472.749 218.071L416.782 222.916C416.782 222.916 422.325 289.463 423.826 317.595C425.312 346.827 444.349 414.296 444.349 414.296H467.399C467.399 414.296 470.98 342.785 466.344 310.418Z" fill="#1AEBFF"/>
<path d="M467.562 436.395H462.257L460.964 434.611L458.765 436.41H429.042C428.761 434.358 429.038 432.268 429.845 430.361C429.845 430.361 440.144 428.682 444.141 425.903C444.478 425.665 444.861 425.5 445.265 425.418C445.669 425.336 446.086 425.339 446.489 425.427C450.086 426.111 459.597 427.656 464.739 425.65C464.866 425.615 465 425.608 465.131 425.63C465.261 425.652 465.385 425.702 465.495 425.777C465.604 425.852 465.695 425.95 465.762 426.064C465.829 426.178 465.87 426.306 465.883 426.438C466.184 429.795 466.745 433.124 467.562 436.395Z" fill="#263238"/>
<path d="M531.227 379.67L549.892 372.061L559.879 393.654L544.29 400.03L531.227 379.67Z" fill="#B55B52"/>
<path d="M531.227 379.67L549.907 372.076L555.495 384.158L538.553 391.068L531.227 379.67Z" fill="black"/>
<path d="M529.295 304.726C528.166 274.201 526.323 228.548 514.82 215.559L452.181 219.825C452.181 219.825 475.587 284.753 484.608 312.201C493.985 340.719 534.898 388.23 534.898 388.23L555.019 379.878C555.019 379.878 540.589 338.653 529.295 304.726Z" fill="#1AEBFF"/>
<path d="M439.846 95.8092C458.246 92.3579 476.972 90.9623 495.679 91.6481C498.245 91.7936 500.754 92.461 503.053 93.6095C505.351 94.7581 507.392 96.3636 509.049 98.3279C510.705 100.292 511.944 102.574 512.689 105.033C513.433 107.493 513.668 110.079 513.379 112.632C508.653 157.081 517.689 209.333 517.585 218.041C517.585 218.041 435.953 251.642 414.122 226.185C403.571 173.22 418.744 127.077 425.832 107.787C426.943 104.755 428.816 102.06 431.27 99.9625C433.725 97.8645 436.678 96.4342 439.846 95.8092Z" fill="#1AEBFF"/>
<path d="M466.344 310.418C466.938 314.489 467.384 319.185 467.726 324.283C453.554 326.7 439.198 327.873 424.822 327.79C424.331 324.075 423.99 320.657 423.826 317.64C423.603 313.449 423.291 308.411 422.92 302.868C438.013 303.619 453.139 303.48 468.216 302.452C467.562 305.117 466.938 307.772 466.344 310.418Z" fill="#263238"/>
<path d="M529.845 306.331C519.516 311.265 504.67 316.303 487.862 320.256C486.626 317.614 485.539 314.905 484.608 312.141C483.583 309.021 482.364 305.395 481.026 301.456C497.093 300.006 513.071 297.704 528.894 294.561C529.042 298.083 529.176 301.486 529.295 304.726L529.845 306.331Z" fill="#263238"/>
<path d="M533.605 295.23C521.716 307.118 472.333 321.831 433.724 315.857C431.455 310.892 429.649 305.728 428.329 300.431C427.413 305.094 427.014 309.843 427.14 314.594C423.188 313.712 419.312 312.519 415.548 311.027C412.918 290.846 406.112 212.067 409.188 169.936C412.264 127.805 426.189 101.263 429.042 99.2867C431.896 97.3102 450.933 91.8562 472.808 90.2661C492.796 88.7799 510.615 93.6692 514.077 99.6137C519.769 108.53 515.385 174.335 517.584 194.724C519.784 215.114 531.851 263.204 533.605 295.23Z" fill="#1AEBFF"/>
<path d="M533.605 295.23C521.716 307.118 472.333 321.831 433.724 315.857C431.455 310.892 429.649 305.728 428.329 300.431C427.413 305.094 427.014 309.843 427.14 314.594C423.188 313.712 419.312 312.519 415.548 311.027C412.918 290.846 406.112 212.067 409.188 169.936C412.264 127.805 426.189 101.263 429.042 99.2867C431.896 97.3102 450.933 91.8562 472.808 90.2661C492.796 88.7799 510.615 93.6692 514.077 99.6137C519.769 108.53 515.385 174.335 517.584 194.724C519.784 215.114 531.851 263.204 533.605 295.23Z" fill="white"/>
<path d="M566.299 394.813L562.985 397.682L560.919 397.102L560.355 399.97L540.366 417.254C538.883 415.791 537.816 413.96 537.275 411.948C537.275 411.948 542.774 406.227 542.506 401.263C542.487 401.078 542.522 400.891 542.606 400.725C542.69 400.559 542.821 400.42 542.982 400.327C545.33 399.019 554.544 393.669 557.546 388.349C557.617 388.222 557.717 388.114 557.838 388.033C557.958 387.951 558.096 387.899 558.241 387.88C558.385 387.862 558.531 387.877 558.669 387.925C558.806 387.972 558.93 388.051 559.032 388.156C561.281 390.557 563.71 392.783 566.299 394.813Z" fill="#263238"/>
<path d="M355.688 156.487L356.045 164.973C353.251 173.428 342.997 167.945 342.997 167.945L337.053 167.291C336 167.117 335.045 166.571 334.361 165.753C333.677 164.935 333.308 163.899 333.322 162.833L333.025 156.888C332.886 155.673 333.227 154.451 333.977 153.484C334.727 152.518 335.826 151.883 337.038 151.716L342.284 151.419C343.817 151.33 345.348 151.621 346.742 152.266L355.688 156.487Z" fill="#B55B52"/>
<path d="M357.457 157.765C354.96 150.914 348.436 150.23 343.577 148.105C342.744 147.749 341.065 149.458 341.927 150.855C342.375 151.755 343.001 152.555 343.767 153.207C344.534 153.858 345.424 154.347 346.385 154.644C346.251 156.918 348.154 163.234 354.574 163.635C356.221 162.098 357.247 160.009 357.457 157.765Z" fill="#B55B52"/>
<path d="M413.929 137.807C411.5 148.376 409.895 159.118 409.129 169.936C409.03 171.333 408.94 172.775 408.861 174.261C419.353 164.69 426.278 149.903 426.293 140.675C426.353 136.187 420.304 134.879 413.929 137.807Z" fill="#1AEBFF"/>
<path d="M476.003 194.68C476.003 194.68 500.688 192.659 507.88 188.408C499.201 195.467 487.313 196.404 476.003 194.68Z" fill="#1AEBFF"/>
<path d="M478.797 197.563C478.797 197.563 496.972 198.692 502.649 196.359C495.664 200.624 486.837 200 478.797 197.563Z" fill="#1AEBFF"/>
<path d="M452.642 122.217C449.268 125.843 445.85 129.291 442.432 132.813C439.014 136.335 435.492 139.724 432.029 143.216C425.06 150.111 417.911 156.844 410.481 163.546L407.42 166.295L404.715 167.053C400.081 168.258 395.361 169.103 390.597 169.579C386.139 170.1 381.903 170.397 377.653 170.62C373.403 170.843 369.167 170.962 364.947 170.976C360.726 170.991 356.565 170.976 352.241 170.724L350.754 149.413L362.643 147.006C366.581 146.218 370.52 145.415 374.398 144.583C378.277 143.751 382.111 142.874 385.797 141.968C389.146 141.188 392.442 140.195 395.665 138.995L389.884 142.503L409.203 121.222L418.907 110.477C422.177 106.925 425.431 103.314 428.701 99.8217L452.642 122.217Z" fill="#1AEBFF"/>
<path d="M452.642 122.217C449.268 125.843 445.85 129.291 442.432 132.813C439.014 136.335 435.492 139.724 432.029 143.216C425.06 150.111 417.911 156.844 410.481 163.546L407.42 166.295L404.715 167.053C400.081 168.258 395.361 169.103 390.597 169.579C386.139 170.1 381.903 170.397 377.653 170.62C373.403 170.843 369.167 170.962 364.947 170.976C360.726 170.991 356.565 170.976 352.241 170.724L350.754 149.413L362.643 147.006C366.581 146.218 370.52 145.415 374.398 144.583C378.277 143.751 382.111 142.874 385.797 141.968C389.146 141.188 392.442 140.195 395.665 138.995L389.884 142.503L409.203 121.222L418.907 110.477C422.177 106.925 425.431 103.314 428.701 99.8217L452.642 122.217Z" fill="white"/>
</svg>
